<?xml version="1.0" encoding="UTF-8"?>
<svg xmlns="http://www.w3.org/2000/svg" xmlns:xlink="http://www.w3.org/1999/xlink" width="373.54pt" height="373.54pt" viewBox="0 0 373.54 373.54" version="1.1">
<defs>
<clipPath id="clip1">
  <path d="M 0 0 L 373.539063 0 L 373.539063 373.539063 L 0 373.539063 Z M 0 0 "/>
</clipPath>
</defs>
<g id="surface1">
<g clip-path="url(#clip1)" clip-rule="nonzero">
<path style=" stroke:none;fill-rule:nonzero;fill:rgb(13.699341%,12.199402%,12.5%);fill-opacity:1;" d="M 186.769531 0.00390625 C 289.585938 0.00390625 373.535156 83.957031 373.535156 186.84375 C 373.535156 289.660156 289.585938 373.539063 186.769531 373.539063 C 83.878906 373.539063 0 289.660156 0 186.84375 C 0 83.957031 83.878906 0.00390625 186.769531 0.00390625 "/>
</g>
<path style=" stroke:none;fill-rule:nonzero;fill:rgb(97.599792%,84.298706%,16.099548%);fill-opacity:1;" d="M 186.769531 5.117188 C 86.6875 5.117188 5.113281 86.765625 5.113281 186.84375 C 5.113281 286.78125 86.6875 368.429688 186.769531 368.429688 C 286.777344 368.429688 368.425781 286.78125 368.425781 186.84375 C 368.425781 86.765625 286.777344 5.117188 186.769531 5.117188 "/>
<path style=" stroke:none;fill-rule:nonzero;fill:rgb(13.699341%,12.199402%,12.5%);fill-opacity:1;" d="M 186.769531 55.445313 C 259.054688 55.445313 318.097656 114.410156 318.097656 186.84375 C 318.097656 259.132813 259.054688 318.101563 186.769531 318.101563 C 114.40625 318.101563 55.367188 259.132813 55.367188 186.84375 C 55.367188 114.410156 114.40625 55.445313 186.769531 55.445313 "/>
<path style=" stroke:none;fill-rule:nonzero;fill:rgb(59.199524%,14.898682%,30.198669%);fill-opacity:1;" d="M 30.742188 192.605469 C 33.550781 192.605469 35.855469 194.90625 35.855469 197.714844 C 35.855469 200.523438 33.550781 202.828125 30.742188 202.828125 C 27.9375 202.828125 25.632813 200.523438 25.632813 197.714844 C 25.632813 194.90625 27.9375 192.605469 30.742188 192.605469 "/>
<path style=" stroke:none;fill-rule:nonzero;fill:rgb(59.199524%,14.898682%,30.198669%);fill-opacity:1;" d="M 269.0625 314.570313 C 271.871094 314.570313 274.175781 316.804688 274.175781 319.613281 C 274.175781 322.417969 271.871094 324.722656 269.0625 324.722656 C 266.257813 324.722656 263.953125 322.417969 263.953125 319.613281 C 263.953125 316.804688 266.257813 314.570313 269.0625 314.570313 "/>
<path style=" stroke:none;fill-rule:nonzero;fill:rgb(59.199524%,14.898682%,30.198669%);fill-opacity:1;" d="M 253.945313 40.757813 C 256.753906 40.757813 259.054688 42.988281 259.054688 45.796875 C 259.054688 48.605469 256.753906 50.90625 253.945313 50.90625 C 251.136719 50.90625 248.832031 48.605469 248.832031 45.796875 C 248.832031 42.988281 251.136719 40.757813 253.945313 40.757813 "/>
<path style=" stroke:none;fill-rule:nonzero;fill:rgb(59.199524%,14.898682%,30.198669%);fill-opacity:1;" d="M 44.785156 235.226563 L 42.265625 229.394531 C 43.054688 228.964844 43.632813 228.53125 43.847656 228.027344 C 44.0625 227.597656 44.136719 227.019531 43.992188 226.515625 C 43.703125 225.507813 42.984375 224.933594 41.832031 224.644531 C 40.96875 224.429688 39.382813 224.570313 36.9375 225.074219 C 37.871094 225.578125 38.664063 226.15625 39.238281 226.804688 C 39.816406 227.523438 40.246094 228.386719 40.535156 229.394531 C 41.113281 231.339844 40.894531 233.210938 39.816406 234.941406 C 38.808594 236.738281 37.296875 237.890625 35.136719 238.539063 C 33.625 238.972656 32.257813 238.972656 30.816406 238.613281 C 29.449219 238.253906 28.222656 237.605469 27.289063 236.523438 C 26.351563 235.515625 25.558594 234.074219 25.054688 232.277344 C 24.40625 230.042969 24.265625 228.171875 24.695313 226.660156 C 25.054688 225.074219 25.917969 223.636719 27.359375 222.410156 C 28.800781 221.117188 30.816406 220.109375 33.550781 219.316406 C 37.511719 218.164063 40.679688 218.234375 42.984375 219.316406 C 45.289063 220.46875 46.871094 222.554688 47.734375 225.507813 C 48.238281 227.234375 48.457031 228.675781 48.3125 229.828125 C 48.238281 230.980469 47.878906 231.988281 47.304688 232.851563 C 46.65625 233.714844 45.863281 234.578125 44.785156 235.226563 "/>
<path style=" stroke:none;fill-rule:nonzero;fill:rgb(97.599792%,84.298706%,16.099548%);fill-opacity:1;" d="M 31.753906 226.804688 C 30.527344 227.164063 29.734375 227.667969 29.230469 228.53125 C 28.726563 229.324219 28.585938 230.117188 28.800781 230.980469 C 29.015625 231.773438 29.519531 232.347656 30.3125 232.707031 C 31.105469 233.066406 32.039063 233.066406 33.265625 232.78125 C 34.488281 232.421875 35.351563 231.84375 35.855469 231.125 C 36.359375 230.332031 36.503906 229.613281 36.214844 228.746094 C 36 227.882813 35.496094 227.234375 34.703125 226.875 C 33.910156 226.515625 32.902344 226.445313 31.753906 226.804688 "/>
<path style=" stroke:none;fill-rule:nonzero;fill:rgb(59.199524%,14.898682%,30.198669%);fill-opacity:1;" d="M 44.855469 254.234375 C 44.710938 255.386719 44.496094 256.253906 44.0625 256.972656 C 43.488281 257.90625 42.695313 258.554688 41.617188 259.058594 C 39.886719 259.851563 38.089844 259.636719 36.214844 258.484375 C 34.847656 257.621094 33.625 256.109375 32.6875 254.019531 C 31.464844 251.210938 31.03125 248.90625 31.535156 247.035156 C 31.96875 245.234375 33.046875 244.011719 34.632813 243.292969 C 35.566406 242.859375 36.574219 242.714844 37.65625 242.933594 C 38.449219 243.003906 39.3125 243.363281 40.246094 244.011719 C 40.320313 242.644531 40.679688 241.492188 41.328125 240.484375 C 41.902344 239.546875 42.839844 238.828125 43.917969 238.324219 C 44.925781 237.890625 46.007813 237.675781 47.160156 237.746094 C 48.238281 237.820313 49.246094 238.109375 50.039063 238.613281 C 50.832031 239.042969 51.625 239.765625 52.273438 240.699219 C 52.992188 241.636719 53.566406 242.714844 54.144531 243.867188 C 55.082031 246.101563 55.585938 247.898438 55.585938 249.339844 C 55.585938 250.707031 55.222656 251.933594 54.503906 253.011719 C 53.710938 254.09375 52.703125 254.882813 51.480469 255.460938 C 50.257813 256.035156 49.105469 256.179688 47.953125 255.964844 C 46.871094 255.820313 45.792969 255.242188 44.855469 254.234375 "/>
<path style=" stroke:none;fill-rule:nonzero;fill:rgb(97.599792%,84.298706%,16.099548%);fill-opacity:1;" d="M 48.671875 249.773438 C 49.609375 249.339844 50.257813 248.691406 50.617188 247.898438 C 50.902344 247.109375 50.902344 246.316406 50.617188 245.597656 C 50.328125 244.875 49.753906 244.371094 48.886719 244.085938 C 48.023438 243.796875 47.160156 243.867188 46.222656 244.300781 C 45.359375 244.730469 44.710938 245.308594 44.351563 246.101563 C 43.992188 246.964844 43.992188 247.757813 44.351563 248.476563 C 44.640625 249.195313 45.214844 249.699219 46.007813 249.988281 C 46.871094 250.277344 47.734375 250.203125 48.671875 249.773438 "/>
<path style=" stroke:none;fill-rule:nonzero;fill:rgb(97.599792%,84.298706%,16.099548%);fill-opacity:1;" d="M 39.527344 253.445313 C 40.246094 253.15625 40.753906 252.652344 40.96875 252.003906 C 41.257813 251.355469 41.183594 250.636719 40.824219 249.914063 C 40.535156 249.195313 40.105469 248.765625 39.457031 248.546875 C 38.808594 248.332031 38.160156 248.332031 37.511719 248.621094 C 36.792969 248.980469 36.289063 249.484375 36 250.132813 C 35.785156 250.78125 35.785156 251.429688 36.070313 252.148438 C 36.429688 252.796875 36.863281 253.300781 37.511719 253.515625 C 38.160156 253.804688 38.878906 253.730469 39.527344 253.445313 "/>
<path style=" stroke:none;fill-rule:nonzero;fill:rgb(59.199524%,14.898682%,30.198669%);fill-opacity:1;" d="M 55.871094 273.027344 C 55.945313 274.179688 55.800781 275.117188 55.511719 275.835938 C 55.082031 276.84375 54.359375 277.636719 53.351563 278.285156 C 51.769531 279.292969 49.96875 279.363281 47.953125 278.5 C 46.441406 277.78125 45.070313 276.484375 43.847656 274.46875 C 42.191406 271.875 41.472656 269.644531 41.6875 267.773438 C 41.902344 265.972656 42.769531 264.53125 44.28125 263.597656 C 45.144531 263.09375 46.152344 262.804688 47.160156 262.804688 C 48.023438 262.804688 48.886719 263.09375 49.894531 263.523438 C 49.753906 262.15625 49.96875 261.003906 50.472656 259.925781 C 50.976563 258.914063 51.695313 258.050781 52.703125 257.476563 C 53.710938 256.828125 54.71875 256.46875 55.871094 256.394531 C 57.023438 256.324219 57.960938 256.46875 58.824219 256.828125 C 59.6875 257.1875 60.550781 257.765625 61.414063 258.628906 C 62.207031 259.421875 62.925781 260.429688 63.648438 261.507813 C 64.945313 263.597656 65.664063 265.324219 65.878906 266.691406 C 66.023438 268.058594 65.878906 269.355469 65.230469 270.507813 C 64.65625 271.660156 63.792969 272.597656 62.640625 273.316406 C 61.488281 274.035156 60.335938 274.394531 59.257813 274.324219 C 58.105469 274.324219 57.023438 273.890625 55.871094 273.027344 "/>
<path style=" stroke:none;fill-rule:nonzero;fill:rgb(97.599792%,84.298706%,16.099548%);fill-opacity:1;" d="M 59.113281 268.058594 C 59.902344 267.554688 60.480469 266.835938 60.695313 265.972656 C 60.910156 265.109375 60.839844 264.316406 60.40625 263.667969 C 59.976563 263.019531 59.328125 262.660156 58.464844 262.445313 C 57.601563 262.300781 56.734375 262.445313 55.871094 263.019531 C 55.007813 263.523438 54.503906 264.242188 54.289063 265.109375 C 54.070313 265.972656 54.144531 266.691406 54.574219 267.410156 C 55.007813 268.058594 55.65625 268.492188 56.449219 268.636719 C 57.3125 268.851563 58.175781 268.636719 59.113281 268.058594 "/>
<path style=" stroke:none;fill-rule:nonzero;fill:rgb(97.599792%,84.298706%,16.099548%);fill-opacity:1;" d="M 50.542969 273.027344 C 51.191406 272.597656 51.625 272.019531 51.769531 271.371094 C 51.910156 270.652344 51.769531 270.003906 51.335938 269.285156 C 50.976563 268.707031 50.398438 268.277344 49.753906 268.132813 C 49.105469 267.988281 48.457031 268.132813 47.808594 268.5625 C 47.160156 268.996094 46.726563 269.5 46.585938 270.21875 C 46.441406 270.867188 46.511719 271.515625 46.945313 272.164063 C 47.375 272.8125 47.878906 273.242188 48.527344 273.386719 C 49.246094 273.53125 49.894531 273.386719 50.542969 273.027344 "/>
<path style=" stroke:none;fill-rule:nonzero;fill:rgb(59.199524%,14.898682%,30.198669%);fill-opacity:1;" d="M 53.421875 288.796875 L 71.785156 274.46875 L 75.742188 279.578125 L 63.71875 288.941406 C 65.015625 289.300781 66.167969 289.660156 67.105469 290.164063 C 68.113281 290.597656 69.265625 291.316406 70.488281 292.179688 L 66.382813 295.417969 C 64.511719 294.125 62.785156 293.332031 61.273438 292.972656 C 59.761719 292.613281 58.246094 292.613281 56.664063 292.972656 L 53.421875 288.796875 "/>
<path style=" stroke:none;fill-rule:nonzero;fill:rgb(59.199524%,14.898682%,30.198669%);fill-opacity:1;" d="M 95.542969 327.675781 L 87.046875 321.484375 C 85.390625 320.257813 84.167969 319.035156 83.519531 317.8125 C 82.800781 316.660156 82.441406 315.363281 82.367188 313.996094 C 82.296875 312.699219 82.511719 311.332031 83.015625 309.964844 C 83.59375 308.667969 84.3125 307.300781 85.175781 306.074219 C 86.617188 304.058594 87.984375 302.691406 89.207031 301.972656 C 90.503906 301.179688 91.726563 300.746094 93.09375 300.605469 C 94.464844 300.386719 95.617188 300.53125 96.769531 300.964844 C 98.28125 301.539063 99.503906 302.1875 100.511719 302.90625 L 109.007813 309.101563 L 95.542969 327.675781 "/>
<path style=" stroke:none;fill-rule:nonzero;fill:rgb(97.599792%,84.298706%,16.099548%);fill-opacity:1;" d="M 92.878906 319.324219 L 100.222656 309.171875 L 98.855469 308.164063 C 97.632813 307.300781 96.695313 306.796875 95.976563 306.722656 C 95.328125 306.578125 94.535156 306.796875 93.816406 307.226563 C 93.023438 307.660156 92.089844 308.667969 91.007813 310.109375 C 89.640625 312.125 88.917969 313.636719 89.0625 314.859375 C 89.207031 316.082031 90 317.164063 91.441406 318.242188 L 92.878906 319.324219 "/>
<path style=" stroke:none;fill-rule:nonzero;fill:rgb(59.199524%,14.898682%,30.198669%);fill-opacity:1;" d="M 117.503906 339.628906 L 100.800781 330.699219 L 103.105469 326.378906 L 113.542969 331.921875 L 115.273438 328.753906 L 105.550781 323.570313 L 107.785156 319.46875 L 117.503906 324.652344 L 119.59375 320.621094 L 108.792969 314.933594 L 111.238281 310.324219 L 128.304688 319.394531 L 117.503906 339.628906 "/>
<path style=" stroke:none;fill-rule:nonzero;fill:rgb(59.199524%,14.898682%,30.198669%);fill-opacity:1;" d="M 143.28125 348.988281 L 133.34375 345.605469 C 131.398438 344.957031 129.886719 344.089844 128.878906 343.15625 C 127.800781 342.21875 127.078125 341.140625 126.648438 339.84375 C 126.214844 338.546875 126 337.25 126.144531 335.8125 C 126.214844 334.371094 126.503906 332.859375 127.078125 331.417969 C 127.871094 329.117188 128.734375 327.386719 129.671875 326.308594 C 130.679688 325.226563 131.761719 324.363281 132.984375 323.859375 C 134.207031 323.285156 135.433594 323.066406 136.585938 323.140625 C 138.167969 323.285156 139.609375 323.5 140.761719 323.933594 L 150.695313 327.386719 L 143.28125 348.988281 "/>
<path style=" stroke:none;fill-rule:nonzero;fill:rgb(97.599792%,84.298706%,16.099548%);fill-opacity:1;" d="M 138.238281 341.789063 L 142.34375 329.980469 L 140.6875 329.402344 C 139.320313 328.898438 138.238281 328.753906 137.59375 328.828125 C 136.871094 328.972656 136.222656 329.332031 135.574219 329.980469 C 135 330.628906 134.425781 331.851563 133.847656 333.578125 C 133.054688 335.882813 132.839844 337.613281 133.34375 338.691406 C 133.777344 339.773438 134.855469 340.636719 136.585938 341.210938 L 138.238281 341.789063 "/>
<path style=" stroke:none;fill-rule:nonzero;fill:rgb(59.199524%,14.898682%,30.198669%);fill-opacity:1;" d="M 172.871094 354.027344 L 166.320313 353.089844 L 159.550781 339.339844 L 157.824219 351.941406 L 151.199219 351.003906 L 154.367188 328.324219 L 160.992188 329.257813 L 167.6875 342.867188 L 169.488281 330.410156 L 176.039063 331.347656 L 172.871094 354.027344 "/>
<path style=" stroke:none;fill-rule:nonzero;fill:rgb(59.199524%,14.898682%,30.198669%);fill-opacity:1;" d="M 187.414063 354.53125 L 180.359375 354.746094 L 179.855469 341.140625 C 179.785156 339.773438 180 338.476563 180.359375 337.25 C 180.71875 336.027344 181.367188 334.949219 182.230469 334.082031 C 183.097656 333.148438 184.03125 332.429688 184.96875 332.066406 C 186.335938 331.492188 187.992188 331.203125 189.9375 331.132813 C 190.945313 331.058594 192.167969 331.132813 193.535156 331.203125 C 194.832031 331.347656 195.910156 331.636719 196.847656 332.066406 C 197.710938 332.5 198.574219 333.074219 199.367188 333.941406 C 200.089844 334.730469 200.664063 335.597656 200.953125 336.53125 C 201.457031 337.972656 201.671875 339.269531 201.742188 340.347656 L 202.175781 354.027344 L 195.121094 354.242188 L 194.617188 340.277344 C 194.617188 339.050781 194.257813 338.042969 193.535156 337.394531 C 192.816406 336.746094 191.808594 336.386719 190.65625 336.460938 C 189.433594 336.460938 188.496094 336.890625 187.847656 337.613281 C 187.199219 338.257813 186.839844 339.269531 186.910156 340.5625 L 187.414063 354.53125 "/>
<path style=" stroke:none;fill-rule:nonzero;fill:rgb(59.199524%,14.898682%,30.198669%);fill-opacity:1;" d="M 229.390625 337.753906 C 230.039063 341.429688 229.535156 344.453125 227.808594 346.898438 C 226.152344 349.277344 223.488281 350.859375 219.816406 351.507813 C 216.070313 352.15625 212.976563 351.652344 210.601563 349.996094 C 208.222656 348.339844 206.710938 345.675781 206.0625 342.074219 C 205.558594 339.410156 205.632813 337.179688 206.207031 335.308594 C 206.855469 333.507813 207.863281 331.921875 209.375 330.699219 C 210.886719 329.476563 212.902344 328.683594 215.425781 328.179688 C 217.945313 327.746094 220.105469 327.820313 221.976563 328.324219 C 223.777344 328.828125 225.359375 329.835938 226.65625 331.417969 C 228.023438 333.003906 228.960938 335.089844 229.390625 337.753906 "/>
<path style=" stroke:none;fill-rule:nonzero;fill:rgb(97.599792%,84.298706%,16.099548%);fill-opacity:1;" d="M 222.40625 338.980469 C 221.976563 336.675781 221.328125 335.089844 220.246094 334.300781 C 219.238281 333.4375 218.015625 333.148438 216.574219 333.363281 C 215.0625 333.652344 213.984375 334.371094 213.335938 335.453125 C 212.6875 336.605469 212.617188 338.402344 213.046875 340.921875 C 213.40625 343.082031 214.128906 344.523438 215.136719 345.386719 C 216.144531 346.179688 217.441406 346.46875 218.878906 346.179688 C 220.320313 345.964844 221.328125 345.242188 221.976563 344.089844 C 222.695313 342.941406 222.839844 341.285156 222.40625 338.980469 "/>
<path style=" stroke:none;fill-rule:nonzero;fill:rgb(59.199524%,14.898682%,30.198669%);fill-opacity:1;" d="M 253.800781 340.347656 L 237.527344 346.898438 L 235.65625 342.363281 L 245.304688 338.476563 L 243.863281 334.730469 L 235.585938 338.042969 L 233.855469 333.796875 L 242.0625 330.484375 L 238.609375 321.773438 L 245.160156 319.109375 L 253.800781 340.347656 "/>
<path style=" stroke:none;fill-rule:nonzero;fill:rgb(59.199524%,14.898682%,30.198669%);fill-opacity:1;" d="M 309.097656 301.46875 L 299.59375 310.683594 C 298.007813 312.195313 296.425781 312.988281 294.769531 313.058594 C 293.183594 313.058594 291.816406 312.484375 290.664063 311.332031 C 289.726563 310.394531 289.222656 309.242188 289.152344 307.949219 C 289.152344 307.082031 289.367188 306.148438 289.871094 305.140625 C 288.433594 306.003906 287.0625 306.363281 285.839844 306.21875 C 284.617188 306.003906 283.535156 305.429688 282.527344 304.417969 C 281.664063 303.554688 281.160156 302.546875 280.871094 301.539063 C 280.585938 300.460938 280.65625 299.378906 280.945313 298.300781 C 281.160156 297.652344 281.59375 296.859375 282.382813 295.921875 C 283.390625 294.628906 284.039063 293.835938 284.398438 293.476563 L 293.183594 284.980469 L 309.097656 301.46875 "/>
<path style=" stroke:none;fill-rule:nonzero;fill:rgb(97.599792%,84.298706%,16.099548%);fill-opacity:1;" d="M 291.457031 293.476563 L 288.863281 295.996094 C 288 296.859375 287.566406 297.578125 287.496094 298.226563 C 287.425781 298.949219 287.640625 299.523438 288.144531 300.027344 C 288.648438 300.53125 289.152344 300.746094 289.800781 300.675781 C 290.449219 300.675781 291.238281 300.171875 292.105469 299.308594 L 294.695313 296.859375 L 291.457031 293.476563 "/>
<path style=" stroke:none;fill-rule:nonzero;fill:rgb(97.599792%,84.298706%,16.099548%);fill-opacity:1;" d="M 297.71875 299.957031 L 295.558594 302.117188 C 294.769531 302.90625 294.335938 303.554688 294.265625 304.132813 C 294.191406 304.707031 294.480469 305.210938 294.910156 305.789063 C 295.414063 306.21875 295.921875 306.4375 296.496094 306.4375 C 297.070313 306.363281 297.71875 306.003906 298.511719 305.285156 L 300.742188 303.125 L 297.71875 299.957031 "/>
<path style=" stroke:none;fill-rule:nonzero;fill:rgb(59.199524%,14.898682%,30.198669%);fill-opacity:1;" d="M 317.808594 290.882813 L 313.488281 296.429688 L 302.6875 288.074219 C 301.609375 287.210938 300.742188 286.277344 300.097656 285.195313 C 299.375 284.117188 298.945313 282.964844 298.800781 281.667969 C 298.65625 280.445313 298.726563 279.292969 299.089844 278.285156 C 299.519531 276.914063 300.3125 275.402344 301.535156 273.890625 C 302.183594 273.027344 302.976563 272.09375 303.910156 271.15625 C 304.847656 270.21875 305.785156 269.570313 306.71875 269.140625 C 307.585938 268.707031 308.59375 268.492188 309.742188 268.421875 C 310.894531 268.421875 311.902344 268.5625 312.769531 268.851563 C 314.207031 269.429688 315.359375 270.074219 316.222656 270.722656 L 326.953125 279.148438 L 322.632813 284.691406 L 311.617188 276.125 C 310.609375 275.332031 309.671875 275.042969 308.664063 275.117188 C 307.65625 275.257813 306.792969 275.765625 306.070313 276.773438 C 305.28125 277.707031 304.992188 278.714844 305.136719 279.652344 C 305.207031 280.585938 305.785156 281.523438 306.792969 282.316406 L 317.808594 290.882813 "/>
<path style=" stroke:none;fill-rule:nonzero;fill:rgb(59.199524%,14.898682%,30.198669%);fill-opacity:1;" d="M 338.257813 258.050781 L 335.015625 264.386719 L 319.609375 256.539063 L 314.640625 266.402344 L 309.601563 263.8125 L 317.808594 247.683594 L 338.257813 258.050781 "/>
<path style=" stroke:none;fill-rule:nonzero;fill:rgb(59.199524%,14.898682%,30.198669%);fill-opacity:1;" d="M 330.335938 242.789063 L 326.59375 248.117188 C 325.078125 247.179688 323.929688 246.171875 323.0625 244.949219 C 322.199219 243.722656 321.769531 242.355469 321.625 240.914063 C 321.40625 239.476563 321.695313 237.820313 322.273438 235.804688 C 323.0625 233.5 324.070313 231.628906 325.222656 230.402344 C 326.375 229.109375 328.03125 228.171875 330.121094 227.667969 C 332.207031 227.164063 334.585938 227.308594 337.320313 228.171875 C 340.921875 229.394531 343.367188 231.195313 344.664063 233.789063 C 346.03125 236.308594 346.105469 239.332031 344.953125 242.859375 C 344.089844 245.597656 342.792969 247.539063 341.207031 248.765625 C 339.550781 249.988281 337.464844 250.636719 334.945313 250.636719 L 335.519531 244.226563 C 336.238281 244.226563 336.816406 244.15625 337.246094 244.085938 C 337.824219 243.867188 338.398438 243.507813 338.832031 243.074219 C 339.335938 242.644531 339.625 242.066406 339.839844 241.347656 C 340.34375 239.835938 340.128906 238.46875 339.191406 237.242188 C 338.472656 236.378906 337.105469 235.589844 335.160156 234.941406 C 332.710938 234.148438 330.984375 234.003906 329.832031 234.4375 C 328.679688 234.867188 327.886719 235.730469 327.457031 237.101563 C 327.097656 238.394531 327.097656 239.476563 327.601563 240.339844 C 328.105469 241.277344 329.039063 242.066406 330.335938 242.789063 "/>
<path style=" stroke:none;fill-rule:nonzero;fill:rgb(59.199524%,14.898682%,30.198669%);fill-opacity:1;" d="M 339.839844 204.339844 L 337.535156 210.316406 C 335.808594 209.8125 334.367188 209.019531 333.289063 208.085938 C 332.207031 207.074219 331.414063 205.996094 330.910156 204.628906 C 330.40625 203.261719 330.191406 201.53125 330.335938 199.515625 C 330.550781 196.996094 331.054688 195.050781 331.847656 193.46875 C 332.710938 191.957031 334.078125 190.730469 335.953125 189.652344 C 337.894531 188.644531 340.199219 188.285156 343.078125 188.429688 C 346.824219 188.714844 349.703125 189.941406 351.574219 192.101563 C 353.449219 194.261719 354.3125 197.140625 354.023438 200.8125 C 353.808594 203.691406 353.089844 205.925781 351.792969 207.4375 C 350.496094 209.019531 348.625 210.101563 346.175781 210.746094 L 345.238281 204.484375 C 345.960938 204.269531 346.464844 204.125 346.824219 203.90625 C 347.398438 203.546875 347.832031 203.042969 348.191406 202.539063 C 348.480469 201.964844 348.695313 201.316406 348.769531 200.667969 C 348.839844 199.011719 348.265625 197.789063 347.039063 196.851563 C 346.175781 196.132813 344.664063 195.699219 342.648438 195.554688 C 340.054688 195.339844 338.328125 195.628906 337.320313 196.347656 C 336.3125 197.066406 335.808594 198.074219 335.664063 199.445313 C 335.59375 200.8125 335.878906 201.890625 336.601563 202.613281 C 337.320313 203.332031 338.398438 203.90625 339.839844 204.339844 "/>
<path style=" stroke:none;fill-rule:nonzero;fill:rgb(59.199524%,14.898682%,30.198669%);fill-opacity:1;" d="M 353.953125 176.765625 L 354.238281 183.890625 L 331.34375 184.683594 L 331.054688 177.554688 L 353.953125 176.765625 "/>
<path style=" stroke:none;fill-rule:nonzero;fill:rgb(59.199524%,14.898682%,30.198669%);fill-opacity:1;" d="M 350.28125 149.90625 L 354.023438 171.148438 L 348.480469 172.085938 L 347.183594 165.027344 L 330.191406 167.980469 L 328.96875 160.996094 L 345.960938 158.042969 L 344.734375 150.914063 L 350.28125 149.90625 "/>
<path style=" stroke:none;fill-rule:nonzero;fill:rgb(59.199524%,14.898682%,30.198669%);fill-opacity:1;" d="M 343.441406 127.15625 L 349.632813 145.085938 L 345.023438 146.667969 L 341.136719 135.4375 L 337.679688 136.589844 L 341.28125 147.027344 L 336.886719 148.539063 L 333.289063 138.171875 L 329.039063 139.613281 L 333 151.132813 L 328.105469 152.859375 L 321.769531 134.570313 L 343.441406 127.15625 "/>
<path style=" stroke:none;fill-rule:nonzero;fill:rgb(59.199524%,14.898682%,30.198669%);fill-opacity:1;" d="M 333.070313 105.484375 L 336.382813 111.746094 L 321.121094 119.8125 L 326.304688 129.605469 L 321.335938 132.195313 L 312.839844 116.210938 L 333.070313 105.484375 "/>
<path style=" stroke:none;fill-rule:nonzero;fill:rgb(59.199524%,14.898682%,30.198669%);fill-opacity:1;" d="M 317.375 81.796875 L 321.550781 87.554688 L 315.070313 92.234375 L 319.609375 98.5 L 326.089844 93.820313 L 330.265625 99.507813 L 311.761719 112.972656 L 307.585938 107.285156 L 315.070313 101.8125 L 310.535156 95.546875 L 303.046875 101.019531 L 298.871094 95.261719 L 317.375 81.796875 "/>
<path style=" stroke:none;fill-rule:nonzero;fill:rgb(59.199524%,14.898682%,30.198669%);fill-opacity:1;" d="M 299.230469 61.996094 L 314.207031 77.476563 L 310.105469 81.363281 L 305.0625 76.179688 L 292.679688 88.132813 L 287.785156 83.09375 L 300.167969 71.066406 L 295.128906 65.882813 L 299.230469 61.996094 "/>
<path style=" stroke:none;fill-rule:nonzero;fill:rgb(59.199524%,14.898682%,30.198669%);fill-opacity:1;" d="M 280.152344 71.714844 L 273.816406 66.746094 L 270.648438 69.050781 L 264.886719 64.589844 L 285.769531 51.84375 L 291.886719 56.597656 L 284.542969 79.925781 L 278.710938 75.386719 L 280.152344 71.714844 "/>
<path style=" stroke:none;fill-rule:nonzero;fill:rgb(97.599792%,84.298706%,16.099548%);fill-opacity:1;" d="M 282.023438 66.890625 L 285.121094 58.828125 L 278.0625 63.796875 L 282.023438 66.890625 "/>
<path style=" stroke:none;fill-rule:nonzero;fill:rgb(59.199524%,14.898682%,30.198669%);fill-opacity:1;" d="M 215.351563 21.53125 L 221.832031 22.898438 L 227.59375 37.085938 L 230.257813 24.699219 L 236.808594 26.066406 L 231.984375 48.460938 L 225.503906 47.09375 L 219.671875 32.980469 L 217.078125 45.292969 L 210.601563 43.925781 L 215.351563 21.53125 "/>
<path style=" stroke:none;fill-rule:nonzero;fill:rgb(59.199524%,14.898682%,30.198669%);fill-opacity:1;" d="M 201.167969 38.882813 L 193.175781 38.308594 L 191.808594 41.980469 L 184.609375 41.476563 L 194.761719 19.226563 L 202.464844 19.804688 L 209.449219 43.277344 L 202.03125 42.699219 L 201.167969 38.882813 "/>
<path style=" stroke:none;fill-rule:nonzero;fill:rgb(97.599792%,84.298706%,16.099548%);fill-opacity:1;" d="M 200.089844 33.84375 L 198.070313 25.421875 L 195.046875 33.484375 L 200.089844 33.84375 "/>
<path style=" stroke:none;fill-rule:nonzero;fill:rgb(59.199524%,14.898682%,30.198669%);fill-opacity:1;" d="M 172.367188 34.492188 L 172.007813 29.738281 L 182.953125 29.019531 L 183.601563 38.738281 C 181.65625 40.324219 179.855469 41.402344 178.273438 42.050781 C 176.6875 42.628906 174.816406 43.058594 172.65625 43.203125 C 169.921875 43.347656 167.6875 43.058594 165.886719 42.269531 C 164.089844 41.476563 162.71875 40.179688 161.640625 38.453125 C 160.558594 36.652344 159.910156 34.5625 159.769531 32.1875 C 159.625 29.738281 159.984375 27.507813 160.847656 25.636719 C 161.785156 23.691406 163.152344 22.179688 165.097656 21.101563 C 166.609375 20.234375 168.625 19.730469 171.289063 19.515625 C 173.808594 19.371094 175.679688 19.445313 176.976563 19.804688 C 178.273438 20.234375 179.351563 20.8125 180.289063 21.746094 C 181.152344 22.613281 181.871094 23.835938 182.375 25.277344 L 175.679688 26.933594 C 175.320313 26.140625 174.742188 25.492188 174.097656 25.058594 C 173.375 24.699219 172.511719 24.484375 171.503906 24.554688 C 169.921875 24.699219 168.695313 25.277344 167.902344 26.429688 C 167.039063 27.578125 166.679688 29.308594 166.824219 31.683594 C 167.039063 34.132813 167.617188 35.859375 168.625 36.867188 C 169.632813 37.875 170.929688 38.308594 172.65625 38.164063 C 173.375 38.09375 174.167969 37.949219 174.886719 37.660156 C 175.535156 37.371094 176.328125 36.941406 177.265625 36.292969 L 177.121094 34.203125 L 172.367188 34.492188 "/>
<path style=" stroke:none;fill-rule:nonzero;fill:rgb(59.199524%,14.898682%,30.198669%);fill-opacity:1;" d="M 151.703125 42.269531 L 143.929688 44.5 L 143.929688 48.460938 L 136.945313 50.476563 L 138.960938 26.066406 L 146.375 23.90625 L 160.921875 43.5625 L 153.792969 45.652344 L 151.703125 42.269531 "/>
<path style=" stroke:none;fill-rule:nonzero;fill:rgb(97.599792%,84.298706%,16.099548%);fill-opacity:1;" d="M 148.894531 37.949219 L 144.214844 30.746094 L 144.070313 39.316406 L 148.894531 37.949219 "/>
<path style=" stroke:none;fill-rule:nonzero;fill:rgb(59.199524%,14.898682%,30.198669%);fill-opacity:1;" d="M 108.503906 38.164063 L 120.601563 32.765625 C 122.617188 31.898438 124.414063 31.683594 125.929688 32.261719 C 127.441406 32.765625 128.59375 33.773438 129.238281 35.210938 C 129.742188 36.4375 129.886719 37.660156 129.457031 38.882813 C 129.238281 39.746094 128.664063 40.539063 127.871094 41.332031 C 129.527344 40.972656 130.894531 41.117188 131.976563 41.691406 C 133.128906 42.269531 133.921875 43.203125 134.566406 44.570313 C 135 45.652344 135.214844 46.730469 135.070313 47.8125 C 134.929688 48.890625 134.566406 49.898438 133.921875 50.765625 C 133.558594 51.339844 132.839844 51.914063 131.761719 52.5625 C 130.390625 53.429688 129.457031 53.933594 129.023438 54.148438 L 117.863281 59.117188 L 108.503906 38.164063 "/>
<path style=" stroke:none;fill-rule:nonzero;fill:rgb(97.599792%,84.298706%,16.099548%);fill-opacity:1;" d="M 122.398438 51.699219 L 125.640625 50.261719 C 126.792969 49.757813 127.511719 49.179688 127.726563 48.605469 C 128.015625 48.027344 128.015625 47.378906 127.726563 46.730469 C 127.441406 46.085938 127.007813 45.652344 126.359375 45.507813 C 125.785156 45.363281 124.921875 45.507813 123.769531 46.011719 L 120.457031 47.453125 L 122.398438 51.699219 "/>
<path style=" stroke:none;fill-rule:nonzero;fill:rgb(97.599792%,84.298706%,16.099548%);fill-opacity:1;" d="M 118.726563 43.492188 L 121.535156 42.269531 C 122.542969 41.765625 123.121094 41.332031 123.40625 40.757813 C 123.625 40.253906 123.625 39.675781 123.335938 39.027344 C 123.046875 38.378906 122.617188 38.019531 122.113281 37.875 C 121.535156 37.660156 120.742188 37.804688 119.808594 38.234375 L 116.929688 39.53125 L 118.726563 43.492188 "/>
<path style=" stroke:none;fill-rule:nonzero;fill:rgb(59.199524%,14.898682%,30.198669%);fill-opacity:1;" d="M 71.351563 65.523438 L 76.320313 61.203125 L 91.152344 65.09375 L 82.800781 55.515625 L 87.839844 51.125 L 102.886719 68.476563 L 97.847656 72.796875 L 83.089844 68.980469 L 91.367188 78.484375 L 86.328125 82.804688 L 71.351563 65.523438 "/>
<path style=" stroke:none;fill-rule:nonzero;fill:rgb(59.199524%,14.898682%,30.198669%);fill-opacity:1;" d="M 61.917969 75.101563 L 66.601563 69.84375 L 76.753906 78.988281 C 77.761719 79.925781 78.625 80.933594 79.199219 82.085938 C 79.847656 83.164063 80.136719 84.386719 80.207031 85.613281 C 80.28125 86.90625 80.136719 88.058594 79.703125 88.996094 C 79.199219 90.363281 78.265625 91.804688 76.96875 93.171875 C 76.246094 94.035156 75.382813 94.898438 74.375 95.765625 C 73.367188 96.628906 72.429688 97.277344 71.496094 97.5625 C 70.558594 97.925781 69.480469 98.066406 68.398438 98.066406 C 67.246094 98.066406 66.238281 97.851563 65.375 97.421875 C 64.007813 96.773438 62.925781 96.050781 62.0625 95.332031 L 51.910156 86.1875 L 56.664063 80.933594 L 67.03125 90.292969 C 67.96875 91.15625 68.976563 91.515625 69.910156 91.515625 C 70.917969 91.445313 71.785156 90.941406 72.648438 90.074219 C 73.441406 89.140625 73.871094 88.203125 73.800781 87.195313 C 73.726563 86.261719 73.222656 85.324219 72.289063 84.460938 L 61.917969 75.101563 "/>
<path style=" stroke:none;fill-rule:nonzero;fill:rgb(59.199524%,14.898682%,30.198669%);fill-opacity:1;" d="M 36.359375 112.179688 L 39.886719 106.058594 L 46.871094 110.019531 L 50.6875 103.324219 L 43.777344 99.363281 L 47.304688 93.171875 L 67.175781 104.621094 L 63.648438 110.8125 L 55.585938 106.132813 L 51.695313 112.828125 L 59.761719 117.507813 L 56.230469 123.628906 L 36.359375 112.179688 "/>
<path style=" stroke:none;fill-rule:nonzero;fill:rgb(59.199524%,14.898682%,30.198669%);fill-opacity:1;" d="M 36.144531 144.578125 C 32.617188 143.355469 30.238281 141.410156 28.945313 138.746094 C 27.648438 136.15625 27.574219 133.058594 28.800781 129.53125 C 30.023438 125.933594 31.96875 123.484375 34.558594 122.1875 C 37.152344 120.890625 40.246094 120.890625 43.703125 122.042969 C 46.222656 122.90625 48.167969 124.058594 49.464844 125.5 C 50.832031 126.867188 51.625 128.597656 51.984375 130.46875 C 52.34375 132.410156 52.128906 134.570313 51.265625 136.949219 C 50.472656 139.394531 49.390625 141.269531 48.023438 142.636719 C 46.726563 143.933594 45 144.867188 42.984375 145.226563 C 40.96875 145.660156 38.664063 145.445313 36.144531 144.578125 "/>
<path style=" stroke:none;fill-rule:nonzero;fill:rgb(97.599792%,84.298706%,16.099548%);fill-opacity:1;" d="M 38.519531 137.882813 C 40.679688 138.605469 42.40625 138.746094 43.632813 138.316406 C 44.855469 137.8125 45.71875 136.875 46.222656 135.4375 C 46.726563 134.066406 46.585938 132.773438 45.9375 131.621094 C 45.289063 130.539063 43.703125 129.53125 41.328125 128.738281 C 39.238281 128.019531 37.65625 127.949219 36.429688 128.453125 C 35.207031 128.957031 34.34375 129.890625 33.839844 131.261719 C 33.40625 132.628906 33.480469 133.851563 34.199219 135.003906 C 34.847656 136.15625 36.289063 137.09375 38.519531 137.882813 "/>
<path style=" stroke:none;fill-rule:nonzero;fill:rgb(59.199524%,14.898682%,30.198669%);fill-opacity:1;" d="M 19.296875 172.226563 L 20.953125 163.085938 L 35.28125 162.003906 L 22.175781 156.027344 L 23.761719 146.882813 L 46.367188 150.84375 L 45.359375 156.53125 L 28.152344 153.507813 L 44.566406 160.996094 L 43.632813 166.109375 L 25.703125 167.476563 L 42.839844 170.5 L 41.832031 176.261719 L 19.296875 172.226563 "/>
<path style=" stroke:none;fill-rule:nonzero;fill:rgb(0%,58.799744%,30.999756%);fill-opacity:1;" d="M 265.390625 163.085938 C 266.257813 163.011719 267.335938 163.011719 268.273438 163.226563 C 268.558594 161.140625 267.910156 158.546875 267.265625 156.316406 C 267.265625 156.101563 267.191406 155.957031 267.121094 155.8125 C 266.902344 154.804688 265.105469 155.09375 264.3125 155.234375 C 264.167969 155.234375 264.023438 155.234375 263.878906 155.234375 C 263.375 155.308594 263.015625 155.453125 262.65625 155.597656 C 262.296875 155.738281 262.078125 156.027344 261.9375 156.242188 C 261.792969 156.53125 261.71875 156.890625 261.792969 157.324219 C 261.792969 157.683594 261.9375 158.042969 262.152344 158.476563 C 262.152344 158.546875 262.222656 158.691406 262.367188 158.980469 C 262.945313 160.203125 264.023438 162.363281 265.390625 163.085938 "/>
<path style=" stroke:none;fill-rule:nonzero;fill:rgb(13.699341%,12.199402%,12.5%);fill-opacity:1;" d="M 251.785156 196.5625 C 251.855469 196.492188 251.855469 196.492188 251.785156 196.5625 "/>
<path style=" stroke:none;fill-rule:nonzero;fill:rgb(59.199524%,14.898682%,30.198669%);fill-opacity:1;" d="M 200.734375 208.589844 C 205.414063 208.660156 210.167969 208.730469 214.847656 208.730469 C 211.105469 202.253906 208.222656 196.058594 206.0625 190.085938 C 203.617188 182.957031 202.320313 176.1875 202.175781 169.492188 C 202.03125 162.21875 203.039063 155.09375 205.128906 147.890625 C 206.855469 141.914063 209.449219 135.941406 212.902344 129.605469 C 210.457031 129.820313 208.078125 129.964844 205.703125 129.890625 L 205.847656 130.035156 C 203.257813 133.132813 195.121094 142.5625 191.230469 156.460938 C 187.414063 170.140625 187.558594 188.140625 200.734375 208.589844 "/>
<path style=" stroke:none;fill-rule:nonzero;fill:rgb(0%,58.799744%,30.999756%);fill-opacity:1;" d="M 154.871094 206.933594 C 161.855469 207.867188 169.199219 208.226563 177.121094 208.226563 C 182.230469 208.226563 187.847656 208.300781 193.609375 208.445313 C 194.328125 208.445313 194.976563 208.445313 195.695313 208.515625 C 183.167969 187.78125 183.167969 169.421875 187.199219 155.308594 C 190.65625 143.066406 197.0625 134.140625 200.734375 129.53125 C 197.207031 129.101563 193.824219 128.234375 190.585938 126.867188 C 187.34375 125.5 184.246094 123.773438 181.222656 121.46875 C 172.871094 126.722656 162.433594 140.621094 156.742188 159.050781 C 152.425781 173.019531 150.769531 189.578125 154.871094 206.933594 "/>
<path style=" stroke:none;fill-rule:nonzero;fill:rgb(59.199524%,14.898682%,30.198669%);fill-opacity:1;" d="M 150.046875 206.066406 C 150.191406 206.066406 150.265625 206.066406 150.335938 206.140625 C 146.59375 188.644531 148.246094 171.941406 152.710938 157.757813 C 158.472656 139.179688 168.910156 124.851563 177.769531 118.660156 C 174.527344 115.707031 171.289063 112.109375 168.046875 107.859375 C 165.097656 109.949219 162.289063 112.179688 159.695313 114.484375 C 145.800781 126.941406 137.878906 141.988281 135.648438 157.035156 C 133.34375 172.085938 136.726563 187.277344 145.441406 200.019531 C 146.808594 202.109375 148.390625 204.125 150.046875 206.066406 "/>
<path style=" stroke:none;fill-rule:nonzero;fill:rgb(0%,58.799744%,30.999756%);fill-opacity:1;" d="M 219.816406 208.660156 C 220.609375 208.085938 221.398438 207.4375 222.265625 206.933594 C 223.921875 205.78125 225.433594 204.914063 226.726563 204.195313 C 226.296875 200.453125 226.222656 196.925781 227.015625 193.757813 C 227.734375 190.804688 229.175781 188.210938 231.695313 186.050781 C 228.742188 184.539063 225.503906 183.605469 222.191406 183.027344 C 217.222656 182.09375 212.183594 182.09375 208.222656 182.378906 C 208.726563 184.46875 209.375 186.554688 210.097656 188.714844 C 212.328125 195.050781 215.566406 201.675781 219.742188 208.660156 C 219.816406 208.660156 219.816406 208.660156 219.816406 208.660156 "/>
<path style=" stroke:none;fill-rule:nonzero;fill:rgb(0%,58.799744%,30.999756%);fill-opacity:1;" d="M 137.304688 239.402344 C 138.742188 237.605469 139.96875 235.804688 141.046875 234.363281 C 141.769531 233.355469 141.769531 233.355469 142.054688 232.925781 C 150.480469 221.332031 170.351563 221.621094 189.574219 221.835938 C 192.960938 221.835938 196.414063 221.90625 199.726563 221.90625 C 209.230469 221.835938 211.535156 218.738281 214.34375 214.925781 C 214.777344 214.277344 215.28125 213.628906 215.785156 212.980469 C 208.367188 212.980469 200.808594 212.835938 193.535156 212.691406 C 187.777344 212.546875 182.160156 212.476563 177.121094 212.476563 C 164.519531 212.402344 153.433594 211.757813 142.558594 208.445313 C 132.839844 205.636719 123.335938 200.667969 113.257813 192.460938 C 113.976563 200.09375 116.425781 207.507813 119.808594 214.5625 C 124.414063 224.066406 130.824219 232.636719 137.304688 239.402344 "/>
<path style=" stroke:none;fill-rule:nonzero;fill:rgb(0%,58.799744%,30.999756%);fill-opacity:1;" d="M 269.785156 197.355469 L 263.734375 190.445313 C 262.007813 194.1875 258.550781 196.707031 254.304688 199.949219 C 250.273438 202.972656 255.816406 198.796875 253.585938 200.453125 C 250.632813 202.683594 248.183594 202.828125 245.59375 202.898438 C 244.296875 202.972656 242.929688 203.042969 241.632813 203.476563 C 240.480469 203.835938 239.902344 204.339844 239.6875 204.914063 C 239.617188 204.988281 239.617188 205.058594 239.617188 205.132813 C 241.273438 206.5 243 208.300781 245.015625 210.746094 C 250.558594 206.5 257.183594 205.707031 264.671875 205.78125 C 266.542969 203.476563 268.34375 200.523438 269.785156 197.355469 "/>
<path style=" stroke:none;fill-rule:nonzero;fill:rgb(13.699341%,12.199402%,12.5%);fill-opacity:1;" d="M 277.34375 206.140625 L 272.808594 200.882813 C 271.871094 202.613281 270.9375 204.339844 269.855469 205.851563 C 270.359375 205.851563 270.863281 205.925781 271.296875 205.925781 C 272.808594 205.925781 274.320313 205.996094 275.761719 206.066406 C 276.335938 206.066406 276.839844 206.066406 277.34375 206.140625 "/>
<path style=" stroke:none;fill-rule:nonzero;fill:rgb(100%,100%,100%);fill-opacity:1;" d="M 289.871094 216.21875 C 289.800781 216.292969 289.65625 216.363281 289.585938 216.4375 C 287.785156 218.019531 286.992188 217.085938 286.199219 216.21875 L 282.527344 211.972656 C 280.65625 211.179688 278.566406 210.605469 275.6875 210.53125 C 274.105469 210.460938 272.59375 210.386719 271.152344 210.386719 C 261.070313 210.027344 252.289063 209.738281 246.238281 215.644531 C 245.375 216.507813 243.648438 216.363281 242.929688 215.355469 C 238.96875 210.386719 236.449219 207.652344 234 207.003906 C 231.769531 206.5 229.105469 207.722656 224.785156 210.605469 C 221.472656 212.835938 219.601563 215.355469 217.945313 217.589844 C 214.414063 222.410156 211.535156 226.300781 199.726563 226.445313 C 196.34375 226.445313 192.886719 226.371094 189.503906 226.371094 C 171.433594 226.15625 152.785156 225.941406 145.726563 235.589844 C 144.792969 236.882813 144.71875 237.027344 144.71875 237.027344 C 138.742188 245.234375 126.9375 261.722656 116.28125 261.074219 C 111.023438 260.714844 107.425781 262.371094 104.761719 265.035156 C 101.953125 267.84375 100.007813 271.949219 98.28125 276.050781 C 98.136719 276.269531 98.0625 276.484375 97.917969 276.699219 C 120.816406 299.308594 152.207031 313.277344 186.769531 313.277344 C 244.296875 313.277344 293.183594 274.46875 308.375 221.621094 C 305.929688 221.402344 303.046875 220.828125 300.238281 220.109375 C 296.425781 219.101563 292.679688 217.730469 289.945313 216.21875 C 289.871094 216.21875 289.871094 216.21875 289.871094 216.21875 "/>
<path style=" stroke:none;fill-rule:nonzero;fill:rgb(0%,58.799744%,30.999756%);fill-opacity:1;" d="M 265.03125 184.613281 L 271.65625 192.316406 C 272.519531 189.652344 272.953125 186.988281 272.953125 184.46875 C 273.023438 181.515625 272.734375 178.78125 272.304688 176.332031 C 271.800781 173.378906 271.078125 170.933594 270.289063 168.988281 C 270.070313 168.410156 269.425781 167.980469 268.632813 167.691406 C 267.550781 167.261719 266.398438 167.1875 265.535156 167.402344 C 265.03125 167.546875 264.742188 167.621094 264.671875 167.765625 C 264.527344 168.050781 264.601563 168.628906 264.671875 169.636719 C 265.105469 173.09375 265.320313 177.269531 265.246094 181.011719 C 265.246094 182.234375 265.175781 183.460938 265.03125 184.613281 "/>
<path style=" stroke:none;fill-rule:nonzero;fill:rgb(97.599792%,84.298706%,16.099548%);fill-opacity:1;" d="M 245.878906 162.652344 L 261 180.003906 C 261.070313 176.691406 260.855469 173.09375 260.496094 170.140625 C 260.28125 168.339844 260.351563 166.972656 260.929688 165.820313 C 261.070313 165.605469 261.144531 165.386719 261.289063 165.242188 C 259.921875 163.804688 259.128906 162.003906 258.550781 160.78125 C 258.550781 160.707031 258.480469 160.707031 258.335938 160.347656 C 257.902344 159.484375 257.6875 158.621094 257.542969 157.757813 C 257.398438 156.53125 257.617188 155.308594 258.191406 154.300781 C 258.695313 153.21875 259.632813 152.355469 260.785156 151.78125 C 261.574219 151.421875 262.441406 151.132813 263.449219 151.058594 C 263.449219 151.058594 263.59375 150.988281 263.734375 150.988281 C 265.609375 150.699219 270.070313 150.125 271.222656 154.730469 C 271.296875 154.875 271.367188 155.09375 271.367188 155.234375 C 272.160156 158.261719 273.097656 161.714844 272.304688 164.957031 C 273.167969 165.605469 273.816406 166.394531 274.175781 167.402344 C 275.113281 169.636719 275.902344 172.371094 276.480469 175.613281 C 276.984375 178.277344 277.273438 181.300781 277.199219 184.46875 C 277.199219 188.210938 276.335938 192.171875 274.894531 195.988281 L 285.984375 208.660156 C 286.992188 209.234375 287.929688 209.8125 288.863281 210.386719 C 289.871094 211.035156 290.953125 211.683594 292.105469 212.261719 C 294.480469 213.628906 297.863281 214.851563 301.390625 215.714844 C 304.273438 216.507813 307.222656 217.011719 309.527344 217.15625 C 311.976563 207.4375 313.273438 197.285156 313.273438 186.84375 C 313.273438 117.074219 256.390625 60.269531 186.769531 60.269531 C 117.070313 60.269531 60.191406 117.074219 60.191406 186.84375 C 60.191406 220.109375 73.296875 250.5625 94.535156 273.242188 C 96.335938 269.066406 98.421875 264.964844 101.519531 261.867188 C 105.046875 258.269531 109.800781 256.109375 116.566406 256.539063 C 122.183594 256.828125 129.167969 249.699219 134.710938 242.789063 C 127.726563 235.660156 120.886719 226.515625 115.992188 216.363281 C 111.601563 207.363281 108.792969 197.570313 108.792969 187.636719 L 108.792969 182.957031 L 112.320313 186.050781 C 123.121094 195.628906 133.054688 201.171875 143.207031 204.339844 C 142.777344 203.691406 142.34375 203.042969 141.910156 202.394531 C 132.625 188.789063 129.023438 172.589844 131.398438 156.460938 C 133.847656 140.402344 142.199219 124.492188 156.886719 111.316406 C 160.054688 108.4375 163.511719 105.699219 167.328125 103.109375 L 169.054688 101.957031 L 170.28125 103.683594 C 177.480469 113.765625 184.609375 119.8125 192.097656 122.90625 C 199.65625 126.003906 207.574219 126.292969 216.503906 124.78125 L 220.96875 124.058594 L 218.664063 127.949219 C 214.34375 135.363281 211.175781 142.277344 209.230469 149.117188 C 207.214844 155.882813 206.351563 162.507813 206.425781 169.421875 C 206.496094 172.300781 206.785156 175.253906 207.289063 178.203125 C 211.679688 177.84375 217.296875 177.84375 222.910156 178.851563 C 227.808594 179.714844 232.703125 181.300781 236.808594 184.109375 L 239.542969 185.980469 L 236.664063 187.707031 C 233.496094 189.507813 231.839844 191.957031 231.121094 194.835938 C 230.542969 197.140625 230.542969 199.804688 230.832031 202.683594 C 232.34375 202.324219 233.785156 202.324219 235.152344 202.757813 C 235.441406 202.828125 235.65625 202.898438 235.871094 202.972656 C 236.59375 201.53125 237.960938 200.234375 240.335938 199.445313 C 242.207031 198.867188 243.863281 198.722656 245.375 198.652344 C 247.246094 198.578125 248.976563 198.507813 250.777344 197.285156 C 250.992188 197.140625 251.28125 196.851563 251.785156 196.5625 C 251.640625 196.636719 251.136719 196.996094 250.777344 197.285156 C 250.921875 197.210938 250.992188 197.140625 251.0625 197.066406 C 251.496094 196.78125 251.710938 196.636719 251.785156 196.5625 C 255.816406 193.539063 258.984375 191.09375 260.136719 187.996094 C 260.28125 187.636719 260.351563 187.203125 260.496094 186.699219 L 242.28125 165.746094 C 241.488281 164.882813 240.695313 163.949219 242.496094 162.363281 C 244.367188 160.78125 245.089844 161.714844 245.878906 162.652344 "/>
</g>
</svg>
